<svg width="203" height="34" viewBox="0 0 203 34" fill="none" xmlns="http://www.w3.org/2000/svg">
<path d="M32.519 15.5393C32.519 15.5393 31.6595 17.3261 30.4418 18.9852C29.3674 20.389 27.2902 23.0691 22.9925 24.6006C26.6455 22.5586 27.7916 21.3462 29.0809 19.5595C30.5134 17.5813 31.0865 16.1775 31.5162 14.1355C31.946 12.0935 32.0176 8.77533 32.0176 8.77533H30.0837C30.0837 8.77533 30.3702 10.6897 30.1553 12.6678C30.012 14.3269 29.7255 17.7089 26.7172 20.9633C25.5711 22.2395 24.2102 23.3881 22.3479 24.3453C19.7693 25.6215 17.0474 26.0682 17.0474 26.0682C21.6316 25.9406 23.3507 25.3663 25.4995 24.4091C27.8632 23.3243 29.1525 22.3672 30.6567 20.7719C32.1609 19.1766 34.0948 16.3689 34.0948 16.3689L32.519 15.5393Z" fill="#696C71" fill-opacity="0.5"/>
<path d="M38.7505 9.1582H44.9821L52.4313 18.1556H52.503V9.1582H57.7318V23.5158H51.7867L43.9793 14.4545H43.9076V23.5158H38.6788V9.1582H38.7505Z" fill="#696C71" fill-opacity="0.5"/>
<path d="M65.6825 9.1582H72.2722L79.2201 23.5158H73.4183L72.4155 21.1547H65.3243L64.3216 23.5158H58.5197L65.6825 9.1582ZM68.9057 12.7955L66.6136 18.2194H71.1262L68.9057 12.7955Z" fill="#696C71" fill-opacity="0.5"/>
<path d="M80.1513 9.1582H86.3829L93.8322 18.1556H93.9038V9.1582H99.1326V23.5158H93.1875L85.4518 14.4545H85.3801V23.5158H80.1513V9.1582Z" fill="#696C71" fill-opacity="0.5"/>
<path d="M111.524 8.71149C117.254 8.71149 122.053 10.3706 122.053 16.3689C122.053 22.3033 117.254 24.0262 111.524 24.0262C105.794 24.0262 100.995 22.3671 100.995 16.3689C100.995 10.3706 105.794 8.71149 111.524 8.71149ZM111.524 20.7718C114.389 20.7718 116.323 19.368 116.323 16.3689C116.323 13.3697 114.389 11.9659 111.524 11.9659C108.659 11.9659 106.725 13.3697 106.725 16.3689C106.653 19.368 108.587 20.7718 111.524 20.7718Z" fill="#696C71" fill-opacity="0.5"/>
<path d="M123.844 9.1582H135.806C140.175 9.1582 141.751 11.264 141.751 13.9441C141.751 16.3051 140.39 18.7299 136.021 18.7299H129.216V23.5158H123.844V9.1582ZM129.288 15.7946H134.087C135.591 15.7946 136.236 15.2203 136.236 14.0079C136.236 12.7316 135.591 12.2212 134.087 12.2212H129.288V15.7946Z" fill="#696C71" fill-opacity="0.5"/>
<path d="M153.641 8.71149C159.371 8.71149 164.171 10.3706 164.171 16.3689C164.171 22.3033 159.371 24.0262 153.641 24.0262C147.911 24.0262 143.112 22.3671 143.112 16.3689C143.112 10.3706 147.983 8.71149 153.641 8.71149ZM153.641 20.7718C156.506 20.7718 158.44 19.368 158.44 16.3689C158.44 13.3697 156.506 11.9659 153.641 11.9659C150.776 11.9659 148.842 13.3697 148.842 16.3689C148.842 19.368 150.776 20.7718 153.641 20.7718Z" fill="#696C71" fill-opacity="0.5"/>
<path d="M166.176 9.1582H179.069C183.009 9.1582 184.441 10.7535 184.441 13.1783C184.441 15.0927 183.295 16.1136 181.863 16.4327V16.4965C182.865 16.8156 183.653 17.5175 183.797 19.049C184.011 21.9205 184.155 22.8138 184.799 23.5158H178.926C178.639 22.8777 178.639 22.0481 178.639 21.41C178.639 19.1766 177.78 18.7299 176.419 18.7299H171.477V23.5158H166.176V9.1582ZM171.548 15.5393H176.705C177.995 15.5393 178.711 14.965 178.711 13.9441C178.711 12.9869 177.995 12.4126 176.705 12.4126H171.548V15.5393Z" fill="#696C71" fill-opacity="0.5"/>
<path d="M186.518 9.1582H202.706V12.285H191.962V14.9012H202.062V17.9004H191.962V20.5166H202.706V23.6434H186.518V9.1582Z" fill="#696C71" fill-opacity="0.5"/>
<path d="M145.046 31.556V25.8768H142.252V25.4301H148.269V25.8768H145.547V31.556H145.046Z" fill="#007B9A" fill-opacity="0.5"/>
<path d="M149.845 31.6836C148.126 31.6836 147.123 30.7903 147.123 29.3226C147.123 28.4931 147.696 27.0254 149.917 27.0254C151.564 27.0254 152.638 27.9826 152.638 29.4502V29.514H147.696C147.768 30.5988 148.627 31.3008 149.988 31.3008C151.492 31.3008 151.85 30.4712 151.994 30.0883H152.495H152.567V30.1521C151.994 31.1731 151.134 31.6836 149.845 31.6836ZM151.922 29.0674C151.779 28.0464 150.919 27.4721 149.773 27.4721C148.627 27.4721 147.839 28.0464 147.624 29.0674H151.922Z" fill="#007B9A" fill-opacity="0.5"/>
<path d="M155.933 31.6836C154.286 31.6836 153.14 30.7264 153.14 29.3864C153.14 27.7273 154.572 27.0254 155.933 27.0254C157.438 27.0254 158.44 27.7911 158.512 28.5569V28.6207H158.011C157.939 28.0464 157.079 27.4721 155.933 27.4721C154.358 27.4721 153.641 28.4292 153.641 29.4502C153.641 30.216 154.214 31.3008 155.933 31.3008C156.793 31.3008 157.796 30.9817 158.011 30.0245L158.512 29.9607H158.584V30.0245C158.297 31.0455 157.294 31.6836 155.933 31.6836Z" fill="#007B9A" fill-opacity="0.5"/>
<path d="M163.598 31.556V28.8759C163.598 28.174 163.383 27.4721 161.878 27.4721C160.374 27.4721 159.873 28.3016 159.873 29.0036V31.556H159.3V25.4301H159.873V27.9188C160.088 27.5359 160.661 27.0254 161.878 27.0254C164.171 27.0254 164.171 28.3654 164.171 28.8759V31.556H163.598Z" fill="#007B9A" fill-opacity="0.5"/>
<path d="M169.399 31.556V28.8759C169.399 28.174 169.184 27.4721 167.68 27.4721C166.176 27.4721 165.675 28.3016 165.675 29.0035V31.556H165.102V27.153H165.675V27.9187C165.89 27.5359 166.463 27.0254 167.68 27.0254C169.972 27.0254 169.972 28.3654 169.972 28.8759V31.556H169.399Z" fill="#007B9A" fill-opacity="0.5"/>
<path d="M173.482 31.6837C171.62 31.6837 170.689 30.535 170.689 29.3226C170.689 28.1102 171.62 26.9616 173.482 26.9616C175.344 26.9616 176.275 28.1102 176.275 29.3226C176.275 30.535 175.344 31.6837 173.482 31.6837ZM173.482 27.4083C171.906 27.4083 171.19 28.4293 171.19 29.3226C171.19 30.216 171.906 31.237 173.482 31.237C175.058 31.237 175.774 30.216 175.774 29.3226C175.774 28.4293 175.058 27.4083 173.482 27.4083Z" fill="#007B9A" fill-opacity="0.5"/>
<path d="M177.636 25.4301H177.063V31.556H177.636V25.4301Z" fill="#007B9A" fill-opacity="0.5"/>
<path d="M181.146 31.6837C179.284 31.6837 178.353 30.535 178.353 29.3226C178.353 28.1102 179.284 26.9616 181.146 26.9616C183.009 26.9616 183.94 28.1102 183.94 29.3226C183.94 30.535 183.009 31.6837 181.146 31.6837ZM181.146 27.4083C179.57 27.4083 178.854 28.4293 178.854 29.3226C178.854 30.216 179.57 31.237 181.146 31.237C182.722 31.237 183.438 30.216 183.438 29.3226C183.438 28.4293 182.722 27.4083 181.146 27.4083Z" fill="#007B9A" fill-opacity="0.5"/>
<path d="M187.235 33.4065C185.587 33.4065 184.799 32.9598 184.656 31.9389V31.8751H185.157C185.301 32.6408 185.945 33.0237 187.235 33.0237C188.667 33.0237 189.383 32.4494 189.383 31.3646V30.5988C188.954 31.2369 188.166 31.556 187.163 31.556C185.157 31.556 184.441 30.4074 184.441 29.2588C184.441 28.2378 185.157 27.0254 187.163 27.0254C188.237 27.0254 188.954 27.3444 189.383 27.9187V27.153H189.956V31.3008C189.956 32.7046 189.097 33.4065 187.235 33.4065ZM187.163 27.4083C186.16 27.4083 185.014 27.8549 185.014 29.195C185.014 30.4074 185.802 31.0455 187.235 31.0455C188.596 31.0455 189.455 30.3436 189.455 29.195C189.455 28.1102 188.596 27.4083 187.163 27.4083Z" fill="#007B9A" fill-opacity="0.5"/>
<path d="M191.031 31.556V27.153H191.604V31.556H191.031ZM191.031 26.3873V25.4301H191.604V26.3873H191.031Z" fill="#007B9A" fill-opacity="0.5"/>
<path d="M195.114 31.6836C193.394 31.6836 192.392 30.7903 192.392 29.3226C192.392 28.4931 192.965 27.0254 195.185 27.0254C196.833 27.0254 197.907 27.9826 197.907 29.4502V29.514H192.965C193.036 30.5988 193.896 31.3008 195.257 31.3008C196.761 31.3008 197.119 30.4712 197.262 30.0883H197.764H197.835V30.1521C197.262 31.1731 196.403 31.6836 195.114 31.6836ZM197.191 29.0674C197.047 28.0464 196.188 27.4721 195.042 27.4721C193.896 27.4721 193.108 28.0464 192.893 29.0674H197.191Z" fill="#007B9A" fill-opacity="0.5"/>
<path d="M200.629 31.6837C199.125 31.6837 198.265 31.1732 198.194 30.1522V30.0884H198.695C198.767 30.5989 198.91 31.237 200.772 31.237C201.99 31.237 202.491 30.9817 202.491 30.3436C202.491 29.8969 202.205 29.7055 201.56 29.5779L199.841 29.3864C199.34 29.3226 198.408 29.1312 198.408 28.2378C198.408 27.5997 198.982 26.9616 200.486 26.9616C201.99 26.9616 202.706 27.4083 202.778 28.4293V28.4931H202.276C202.133 27.7273 201.632 27.4083 200.414 27.4083C199.411 27.4083 198.91 27.7273 198.91 28.2378C198.91 28.6207 199.196 28.876 199.841 28.9398L201.417 29.1312C202.491 29.2588 202.993 29.6417 202.993 30.3436C203.064 30.9817 202.635 31.6837 200.629 31.6837Z" fill="#007B9A" fill-opacity="0.5"/>
<path d="M41.9022 7.43528C39.0371 7.43528 38.2492 5.3295 38.2492 4.24471C38.2492 3.15991 39.0371 1.05414 41.9022 1.05414C44.7673 1.05414 45.5553 3.15991 45.5553 4.24471C45.5553 5.3295 44.7673 7.43528 41.9022 7.43528ZM41.9022 1.43701C39.825 1.43701 38.8223 2.84086 38.8223 4.1809C38.8223 5.58475 39.8967 6.92479 41.9022 6.92479C43.9078 6.92479 44.9822 5.52094 44.9822 4.1809C44.9822 2.84086 43.9078 1.43701 41.9022 1.43701Z" fill="#007B9A" fill-opacity="0.5"/>
<path d="M50.4259 7.24381L48.4203 5.32946L46.3431 7.24381H45.7701H45.6268L48.0621 4.9466L45.8417 2.84082H46.558L48.4203 4.62754L50.211 2.84082H50.8556H50.9272L48.7068 4.9466L51.2138 7.24381H50.4259Z" fill="#007B9A" fill-opacity="0.5"/>
<path d="M52.5748 7.24384V3.28754H51.4288V2.84086H52.5748V2.20274C52.5748 1.62844 52.718 1.05414 53.8641 1.05414C54.079 1.05414 54.3655 1.05414 54.5804 1.11795H54.652V1.18176V1.56463H54.5804C54.3655 1.56463 54.1506 1.50082 53.8641 1.50082C53.6492 1.50082 53.0762 1.50082 53.0762 2.13893V2.84086H54.5087V3.28754H53.0762V7.30765H52.5748V7.24384Z" fill="#007B9A" fill-opacity="0.5"/>
<path d="M57.3737 7.43524C55.5114 7.43524 54.5802 6.28663 54.5802 5.07422C54.5802 3.8618 55.5114 2.7132 57.3737 2.7132C59.236 2.7132 60.1672 3.92561 60.1672 5.07422C60.1672 6.22282 59.236 7.43524 57.3737 7.43524ZM57.3737 3.15988C55.8695 3.15988 55.1532 4.11705 55.1532 5.07422C55.1532 6.03139 55.8695 6.98856 57.4453 6.98856C59.0211 6.98856 59.7374 5.96758 59.7374 5.07422C59.7374 4.18086 58.9495 3.15988 57.3737 3.15988Z" fill="#007B9A" fill-opacity="0.5"/>
<path d="M61.17 7.2438V2.84082H61.743V3.73418C62.0295 3.09606 62.8174 2.7132 63.7486 2.7132C63.8918 2.7132 63.9635 2.7132 64.1067 2.77701L64.1783 3.22369V3.2875H64.1067C64.0351 3.2875 63.8918 3.22369 63.6053 3.22369C62.316 3.22369 61.743 4.11705 61.743 4.88278V7.2438H61.17Z" fill="#007B9A" fill-opacity="0.5"/>
<path d="M66.9003 7.43525C65.1096 7.43525 64.2501 6.22283 64.2501 5.07423C64.2501 3.67038 65.3245 2.7132 66.9003 2.7132C68.1896 2.7132 68.7626 3.35132 69.0491 3.67038V1.11792H69.6221V7.24381H69.0491V6.41427C68.7626 6.92476 68.0463 7.43525 66.9003 7.43525ZM66.9003 3.15988C65.8259 3.15988 64.7515 3.73419 64.7515 5.07423C64.7515 6.22283 65.611 6.98857 66.8287 6.98857C68.4761 6.98857 69.0491 6.0314 69.0491 5.13804C69.0491 3.67038 67.9747 3.15988 66.9003 3.15988Z" fill="#007B9A" fill-opacity="0.5"/>
<path d="M26.359 26.2596C28.5794 25.5577 31.8027 24.0262 31.8027 24.0262L30.8715 22.4948C30.8715 22.4948 29.1524 23.6434 27.1469 24.5367C25.4278 25.2387 22.0613 26.7063 17.4771 26.0682C21.4167 25.9406 24.8548 24.0262 26.7171 21.1547C26.7171 21.1547 26.7171 21.1547 26.7171 21.0909C26.8604 20.8995 26.932 20.708 27.0752 20.4528C28.9376 17.2622 29.2241 15.7308 29.2957 13.7526C29.439 11.3916 29.1524 9.92392 28.3645 7.94577C27.5766 5.96761 25.8576 3.0961 25.8576 3.0961L24.1385 3.92565C24.1385 3.92565 25.4278 5.45712 26.4306 7.24384C27.2185 8.77531 28.8659 11.7106 28.1497 15.7946C27.9348 11.9659 27.3618 10.4344 26.2873 8.58388C25.0697 6.4781 23.9953 5.3295 22.2046 3.98946C20.4855 2.64942 17.3339 0.926514 17.3339 0.926514L16.3311 2.39418C16.3311 2.39418 18.3367 3.15991 20.199 4.24471C21.7748 5.20188 24.7832 7.05241 26.5022 10.9449C26.5022 10.8811 26.4306 10.8811 26.4306 10.8173C26.359 10.7535 26.2873 10.6258 26.2157 10.562C24.0669 7.5629 22.706 6.60573 20.8436 5.52093C18.6232 4.24471 17.0474 3.73421 14.7553 3.35135C12.4632 2.96848 8.73857 2.90467 8.73857 2.90467V4.62757C8.73857 4.62757 10.8874 4.37233 13.1079 4.56376C14.9702 4.69139 18.6232 4.94663 22.2762 7.49909C18.4799 5.71237 16.7609 5.45712 14.3972 5.3295C11.7469 5.20188 10.0995 5.45712 7.87904 6.15905C5.65858 6.86097 2.43534 8.39245 2.43534 8.39245L3.3665 9.86011C3.3665 9.86011 5.08556 8.7115 7.09113 7.81814C8.8102 7.11622 12.1051 5.64856 16.7609 6.28667C16.4744 6.28667 16.1878 6.28667 15.9013 6.35048C12.1767 6.54192 10.6009 7.05241 8.59531 7.94577C6.2316 9.03056 4.94231 9.98773 3.43813 11.583C1.93395 13.1783 0 15.986 0 15.986L1.64744 16.8794C1.64744 16.8794 2.50697 15.0926 3.72464 13.4335C4.79905 12.0935 6.80462 9.34962 11.1023 7.88195C10.959 7.94577 10.7441 8.07339 10.6009 8.20101C7.37765 10.0515 6.30323 11.264 5.08556 12.9231C3.65301 14.9012 3.07999 16.3051 2.65022 18.347C2.29208 20.3252 2.14883 23.6434 2.14883 23.6434H4.08277C4.08277 23.6434 3.79626 21.729 4.01115 19.7509C4.1544 18.0918 4.44091 14.8374 7.30602 11.6468C7.30602 11.7106 7.23439 11.7106 7.23439 11.7744C5.30044 15.0288 5.01393 16.6241 4.87068 18.6023C4.72742 20.9633 5.01393 22.431 5.80184 24.4091C6.58974 26.3873 8.3088 29.2588 8.3088 29.2588L10.0279 28.4292C10.0279 28.4292 8.73857 26.8977 7.73578 25.111C6.94788 23.5796 5.30044 20.6442 6.01672 16.5603C6.2316 20.389 6.80462 21.9205 7.87904 23.771C9.09671 25.8768 10.1711 27.0254 11.9618 28.3654C13.7525 29.7054 16.9041 31.4284 16.9041 31.4284L17.9069 29.9607C17.9069 29.9607 15.9013 29.195 14.039 28.1102C12.4632 27.153 9.45485 25.3025 7.73578 21.41C10.0279 24.6643 11.3888 25.6853 13.3944 26.8339C15.6148 28.1102 17.1906 28.6207 19.4827 29.0035C21.7748 29.3864 25.4994 29.4502 25.4994 29.4502V27.7273C25.4994 27.7273 23.3506 27.9825 21.1301 27.7911C19.2678 27.6635 15.6148 27.4082 11.9618 24.8558C15.7581 26.6425 17.5488 26.8977 19.8409 27.0254C22.4911 27.2168 24.1385 26.9616 26.359 26.2596ZM17.119 7.24384C22.6343 7.24384 27.1469 11.264 27.1469 16.1774C27.1469 21.0909 22.6343 25.111 17.119 25.111C11.6037 25.111 7.09113 21.0909 7.09113 16.1774C7.09113 11.264 11.6037 7.24384 17.119 7.24384Z" fill="#007B9A" fill-opacity="0.5"/>
</svg>
